<svg version="1.1" id="Layer_1" xmlns="http://www.w3.org/2000/svg" xmlns:xlink="http://www.w3.org/1999/xlink" x="0px" y="0px"
	 width="100%" viewBox="0 0 800 284" enable-background="new 0 0 800 284" xml:space="preserve">
<path fill="#000000" opacity="1.000000" stroke="none" 
	d="
M558.000000,285.000000 
	C372.042755,285.000000 186.585495,285.000000 1.064118,285.000000 
	C1.064118,190.397934 1.064118,95.795807 1.064118,1.096839 
	C267.666656,1.096839 534.333313,1.096839 800.971802,1.096839 
	C800.971802,95.747910 800.971802,190.373962 800.971802,285.000000 
	C720.129089,285.000000 639.314514,285.000000 558.000000,285.000000 
M327.500000,151.999283 
	C348.661591,151.999161 369.823151,152.000671 390.984741,151.995789 
	C392.650635,151.995407 394.316528,151.952835 395.982391,151.925949 
	C399.240204,151.873352 400.750122,150.198517 400.949127,146.959518 
	C401.704071,134.672760 399.392975,122.955910 393.394989,112.273911 
	C378.394348,85.558868 352.779236,77.594284 325.694885,81.753578 
	C296.762817,86.196625 278.465332,105.976067 274.312164,135.206299 
	C270.695770,160.658295 282.572906,186.081528 304.424683,198.036118 
	C324.892029,209.233307 346.093597,209.551819 367.410431,200.247726 
	C378.810059,195.272125 387.225220,186.924118 393.316071,176.197708 
	C396.541107,170.518265 395.731750,169.147980 389.380615,169.027924 
	C386.049225,168.964951 382.699615,169.220627 379.386810,168.963501 
	C373.776917,168.528061 369.805359,171.041595 365.578705,174.527740 
	C361.228943,178.115387 355.971252,181.212982 350.601624,182.780167 
	C345.322693,184.320847 339.401184,183.980942 333.767242,183.922668 
	C317.973206,183.759323 304.510620,173.240799 300.212433,158.043533 
	C298.933136,153.520325 299.763123,152.185532 304.506439,152.080307 
	C311.834625,151.917755 319.168518,152.013260 327.500000,151.999283 
M634.833862,191.023682 
	C634.899536,197.016220 635.059326,203.009720 634.998779,209.000992 
	C634.956055,213.224426 636.859009,215.100998 641.048706,214.991928 
	C645.208801,214.883606 649.373779,214.924561 653.536194,214.957626 
	C657.299744,214.987518 658.987000,213.113678 658.968323,209.417023 
	C658.941406,204.088867 659.110046,198.757797 658.989075,193.432663 
	C658.890808,189.109207 660.547546,186.846161 665.114746,187.007614 
	C677.016541,187.428360 675.946533,186.026993 675.997925,175.347549 
	C676.000366,174.848007 675.999756,174.348389 675.993835,173.848877 
	C675.909485,166.749802 675.294983,166.123154 668.305664,166.005112 
	C659.135742,165.850220 659.016235,165.750092 659.005981,156.765015 
	C658.981995,135.783707 659.138611,114.800591 658.906799,93.821693 
	C658.761597,80.683662 651.121033,70.083214 639.682495,66.129883 
	C628.480713,62.258369 615.439209,65.282005 608.310730,74.467041 
	C589.943726,98.133102 571.778687,121.961777 553.905701,146.002594 
	C546.180176,156.394119 547.952148,169.654205 557.227051,178.718842 
	C563.611572,184.958588 571.612793,186.864609 580.131775,186.945984 
	C595.949707,187.097061 611.770081,186.977432 627.589233,187.034195 
	C630.342346,187.044067 633.469543,186.527374 634.833862,191.023682 
M482.706360,206.127579 
	C502.850250,204.634689 519.195007,196.314468 530.232971,179.024353 
	C538.198486,166.547134 541.190186,152.744568 539.944580,137.989532 
	C538.050659,115.556229 527.529358,98.720390 507.673676,87.862495 
	C495.328766,81.111794 481.865143,79.868530 468.350525,81.239662 
	C447.015991,83.404152 430.356232,93.443130 420.027618,112.883156 
	C414.221313,123.811516 412.486572,135.430176 412.962341,147.653259 
	C414.410919,184.869171 444.780029,209.307648 482.706360,206.127579 
M258.251892,115.346489 
	C254.447784,105.336227 249.102615,96.618996 239.668365,90.720879 
	C223.098663,80.361778 205.304672,79.005646 186.730881,82.867638 
	C167.170425,86.934799 154.701859,98.880318 148.593063,117.736465 
	C143.596878,133.158325 145.136719,149.057968 145.152054,164.839767 
	C145.155197,168.066498 147.374115,168.252289 150.055695,168.116959 
	C154.484543,167.893433 159.048141,167.481888 163.344223,168.281616 
	C167.727325,169.097549 169.099457,168.033966 169.034058,163.738037 
	C168.894608,154.577805 168.572220,145.386581 169.131516,136.257462 
	C169.951782,122.868706 174.753754,111.550354 188.208923,105.990746 
	C204.801041,99.134956 230.197144,102.269707 236.728394,126.516235 
	C238.099594,131.606583 238.796585,137.010254 238.895630,142.286591 
	C239.180054,157.441269 238.949661,172.604889 239.013779,187.764603 
	C239.085007,204.602249 237.180923,202.950027 254.308975,202.976013 
	C261.275604,202.986588 261.970642,202.249023 261.984192,195.142395 
	C262.020081,176.317413 262.323395,157.484039 261.841522,138.671371 
	C261.648102,131.119736 259.679688,123.613571 258.251892,115.346489 
M84.515320,243.999588 
	C95.642563,253.924515 114.777824,249.520920 118.171288,232.781631 
	C121.099480,218.337433 129.506744,212.130569 142.960709,213.096085 
	C146.055634,213.318176 149.141632,214.257126 152.136459,215.176514 
	C163.331024,218.613068 177.586563,209.141647 176.779190,194.630005 
	C176.050629,181.535172 162.900711,173.526413 150.062866,176.939194 
	C145.116791,178.254044 139.476227,179.008453 134.570282,177.994598 
	C124.392677,175.891281 120.283485,167.745667 117.982651,158.328430 
	C115.077049,146.435928 105.014160,140.248703 93.672035,143.042877 
	C83.340942,145.587952 77.832352,154.138428 79.051369,165.737167 
	C79.959724,174.380020 88.808708,182.139481 98.279892,181.865417 
	C102.661652,181.738647 107.018341,180.309906 111.361000,179.355820 
	C121.627975,177.100159 132.905655,184.279388 134.631378,194.471893 
	C135.985886,202.471893 127.878906,211.721100 118.690811,211.938507 
	C114.014999,212.049149 109.225037,211.629822 104.646500,210.679840 
	C94.518150,208.578354 86.502945,211.256561 81.615913,218.987122 
	C76.968498,226.338654 77.893372,235.848221 84.515320,243.999588 
M692.000000,127.500000 
	C691.999512,151.829620 692.052917,176.159470 691.946411,200.488632 
	C691.928284,204.627747 691.488098,208.809631 690.778870,212.891144 
	C689.569214,219.853439 685.295898,224.018936 678.341797,225.548340 
	C668.958496,227.611984 668.969116,227.672684 669.002808,237.654861 
	C669.007874,239.154236 669.037292,240.653961 669.082642,242.152679 
	C669.172852,245.133759 670.642395,246.969360 673.695435,246.875977 
	C694.121704,246.251190 708.245911,240.438766 713.330200,219.925629 
	C714.440186,215.447479 714.886963,210.705017 714.925232,206.078384 
	C715.093262,185.749481 715.002197,165.418442 715.000000,145.088165 
	C714.998047,127.257545 714.921326,109.426506 715.030090,91.596581 
	C715.058350,86.971619 713.289368,84.757469 708.543823,84.989586 
	C705.385376,85.144066 702.212158,84.965126 699.047058,85.020874 
	C692.948181,85.128296 692.069214,85.937775 692.031799,92.005356 
	C691.960815,103.503197 692.004150,115.001747 692.000000,127.500000 
M717.447998,70.973236 
	C723.798462,63.767399 725.019043,55.712238 720.969238,47.068588 
	C717.150635,38.918262 710.148193,36.602688 701.650452,36.955467 
	C693.446533,37.296047 687.361023,41.983543 684.755615,50.534939 
	C682.344849,58.447124 685.081360,67.884933 691.070068,72.012390 
	C699.791992,78.023491 708.410950,77.431213 717.447998,70.973236 
z"/>
<path fill="#181414" opacity="1.000000" stroke="none" 
	d="
M327.000000,151.999298 
	C319.168518,152.013260 311.834625,151.917755 304.506439,152.080307 
	C299.763123,152.185532 298.933136,153.520325 300.212433,158.043533 
	C304.510620,173.240799 317.973206,183.759323 333.767242,183.922668 
	C339.401184,183.980942 345.322693,184.320847 350.601624,182.780167 
	C355.971252,181.212982 361.228943,178.115387 365.578705,174.527740 
	C369.805359,171.041595 373.776917,168.528061 379.386810,168.963501 
	C382.699615,169.220627 386.049225,168.964951 389.380615,169.027924 
	C395.731750,169.147980 396.541107,170.518265 393.316071,176.197708 
	C387.225220,186.924118 378.810059,195.272125 367.410431,200.247726 
	C346.093597,209.551819 324.892029,209.233307 304.424683,198.036118 
	C282.572906,186.081528 270.695770,160.658295 274.312164,135.206299 
	C278.465332,105.976067 296.762817,86.196625 325.694885,81.753578 
	C352.779236,77.594284 378.394348,85.558868 393.394989,112.273911 
	C399.392975,122.955910 401.704071,134.672760 400.949127,146.959518 
	C400.750122,150.198517 399.240204,151.873352 395.982391,151.925949 
	C394.316528,151.952835 392.650635,151.995407 390.984741,151.995789 
	C369.823151,152.000671 348.661591,151.999161 327.000000,151.999298 
M354.511444,105.860992 
	C347.481049,104.941887 340.370331,102.864159 333.437012,103.345009 
	C319.024506,104.344582 307.909607,111.439835 301.695648,124.961342 
	C299.716980,129.266953 300.790039,130.901978 305.517548,130.921844 
	C327.174591,131.012909 348.832489,131.012985 370.489532,130.919769 
	C375.229462,130.899384 376.204926,129.313705 374.325195,124.956886 
	C370.519196,116.135506 363.933136,110.043381 354.511444,105.860992 
z"/>
<path fill="#181414" opacity="1.000000" stroke="none" 
	d="
M634.752808,190.599426 
	C633.469543,186.527374 630.342346,187.044067 627.589233,187.034195 
	C611.770081,186.977432 595.949707,187.097061 580.131775,186.945984 
	C571.612793,186.864609 563.611572,184.958588 557.227051,178.718842 
	C547.952148,169.654205 546.180176,156.394119 553.905701,146.002594 
	C571.778687,121.961777 589.943726,98.133102 608.310730,74.467041 
	C615.439209,65.282005 628.480713,62.258369 639.682495,66.129883 
	C651.121033,70.083214 658.761597,80.683662 658.906799,93.821693 
	C659.138611,114.800591 658.981995,135.783707 659.005981,156.765015 
	C659.016235,165.750092 659.135742,165.850220 668.305664,166.005112 
	C675.294983,166.123154 675.909485,166.749802 675.993835,173.848877 
	C675.999756,174.348389 676.000366,174.848007 675.997925,175.347549 
	C675.946533,186.026993 677.016541,187.428360 665.114746,187.007614 
	C660.547546,186.846161 658.890808,189.109207 658.989075,193.432663 
	C659.110046,198.757797 658.941406,204.088867 658.968323,209.417023 
	C658.987000,213.113678 657.299744,214.987518 653.536194,214.957626 
	C649.373779,214.924561 645.208801,214.883606 641.048706,214.991928 
	C636.859009,215.100998 634.956055,213.224426 634.998779,209.000992 
	C635.059326,203.009720 634.899536,197.016220 634.752808,190.599426 
M635.000000,102.524521 
	C634.972168,99.692986 635.298096,96.796623 634.795166,94.052155 
	C634.445862,92.145279 633.313721,89.409836 631.886597,88.918961 
	C630.111145,88.308258 627.478027,89.253571 625.580078,90.233467 
	C624.067505,91.014435 622.998962,92.777962 621.910095,94.237221 
	C614.743042,103.841904 607.693787,113.535217 600.470337,123.096985 
	C592.543640,133.589630 584.340088,143.874985 576.511230,154.438919 
	C571.926880,160.624878 574.346130,165.380402 581.982361,165.924362 
	C582.812256,165.983459 583.647217,165.987793 584.479858,165.988068 
	C598.806396,165.992599 613.132996,166.025208 627.459351,165.979004 
	C634.185059,165.957306 634.961426,165.190796 634.977966,158.491089 
	C635.023193,140.166565 634.997559,121.841866 635.000000,102.524521 
z"/>
<path fill="#181414" opacity="1.000000" stroke="none" 
	d="
M482.261536,206.172760 
	C444.780029,209.307648 414.410919,184.869171 412.962341,147.653259 
	C412.486572,135.430176 414.221313,123.811516 420.027618,112.883156 
	C430.356232,93.443130 447.015991,83.404152 468.350525,81.239662 
	C481.865143,79.868530 495.328766,81.111794 507.673676,87.862495 
	C527.529358,98.720390 538.050659,115.556229 539.944580,137.989532 
	C541.190186,152.744568 538.198486,166.547134 530.232971,179.024353 
	C519.195007,196.314468 502.850250,204.634689 482.261536,206.172760 
M512.183350,123.421066 
	C508.769287,116.682983 503.754395,111.446732 497.125183,107.870598 
	C480.085083,98.678345 453.047241,100.982719 441.031311,123.947029 
	C436.978516,131.692505 436.578766,139.921219 437.076080,148.283966 
	C438.016968,164.105896 445.824554,175.895706 460.514801,181.305573 
	C475.418640,186.794083 490.449951,185.857224 503.381165,175.045197 
	C517.705872,163.067978 520.293945,140.654968 512.183350,123.421066 
z"/>
<path fill="#181414" opacity="1.000000" stroke="none" 
	d="
M258.385498,115.716599 
	C259.679688,123.613571 261.648102,131.119736 261.841522,138.671371 
	C262.323395,157.484039 262.020081,176.317413 261.984192,195.142395 
	C261.970642,202.249023 261.275604,202.986588 254.308975,202.976013 
	C237.180923,202.950027 239.085007,204.602249 239.013779,187.764603 
	C238.949661,172.604889 239.180054,157.441269 238.895630,142.286591 
	C238.796585,137.010254 238.099594,131.606583 236.728394,126.516235 
	C230.197144,102.269707 204.801041,99.134956 188.208923,105.990746 
	C174.753754,111.550354 169.951782,122.868706 169.131516,136.257462 
	C168.572220,145.386581 168.894608,154.577805 169.034058,163.738037 
	C169.099457,168.033966 167.727325,169.097549 163.344223,168.281616 
	C159.048141,167.481888 154.484543,167.893433 150.055695,168.116959 
	C147.374115,168.252289 145.155197,168.066498 145.152054,164.839767 
	C145.136719,149.057968 143.596878,133.158325 148.593063,117.736465 
	C154.701859,98.880318 167.170425,86.934799 186.730881,82.867638 
	C205.304672,79.005646 223.098663,80.361778 239.668365,90.720879 
	C249.102615,96.618996 254.447784,105.336227 258.385498,115.716599 
z"/>
<path fill="#014063" opacity="1.000000" stroke="none" 
	d="
M84.256805,243.741287 
	C77.893372,235.848221 76.968498,226.338654 81.615913,218.987122 
	C86.502945,211.256561 94.518150,208.578354 104.646500,210.679840 
	C109.225037,211.629822 114.014999,212.049149 118.690811,211.938507 
	C127.878906,211.721100 135.985886,202.471893 134.631378,194.471893 
	C132.905655,184.279388 121.627975,177.100159 111.361000,179.355820 
	C107.018341,180.309906 102.661652,181.738647 98.279892,181.865417 
	C88.808708,182.139481 79.959724,174.380020 79.051369,165.737167 
	C77.832352,154.138428 83.340942,145.587952 93.672035,143.042877 
	C105.014160,140.248703 115.077049,146.435928 117.982651,158.328430 
	C120.283485,167.745667 124.392677,175.891281 134.570282,177.994598 
	C139.476227,179.008453 145.116791,178.254044 150.062866,176.939194 
	C162.900711,173.526413 176.050629,181.535172 176.779190,194.630005 
	C177.586563,209.141647 163.331024,218.613068 152.136459,215.176514 
	C149.141632,214.257126 146.055634,213.318176 142.960709,213.096085 
	C129.506744,212.130569 121.099480,218.337433 118.171288,232.781631 
	C114.777824,249.520920 95.642563,253.924515 84.256805,243.741287 
z"/>
<path fill="#181414" opacity="1.000000" stroke="none" 
	d="
M692.000000,127.000000 
	C692.004150,115.001747 691.960815,103.503197 692.031799,92.005356 
	C692.069214,85.937775 692.948181,85.128296 699.047058,85.020874 
	C702.212158,84.965126 705.385376,85.144066 708.543823,84.989586 
	C713.289368,84.757469 715.058350,86.971619 715.030090,91.596581 
	C714.921326,109.426506 714.998047,127.257545 715.000000,145.088165 
	C715.002197,165.418442 715.093262,185.749481 714.925232,206.078384 
	C714.886963,210.705017 714.440186,215.447479 713.330200,219.925629 
	C708.245911,240.438766 694.121704,246.251190 673.695435,246.875977 
	C670.642395,246.969360 669.172852,245.133759 669.082642,242.152679 
	C669.037292,240.653961 669.007874,239.154236 669.002808,237.654861 
	C668.969116,227.672684 668.958496,227.611984 678.341797,225.548340 
	C685.295898,224.018936 689.569214,219.853439 690.778870,212.891144 
	C691.488098,208.809631 691.928284,204.627747 691.946411,200.488632 
	C692.052917,176.159470 691.999512,151.829620 692.000000,127.000000 
z"/>
<path fill="#014063" opacity="1.000000" stroke="none" 
	d="
M717.171936,71.216553 
	C708.410950,77.431213 699.791992,78.023491 691.070068,72.012390 
	C685.081360,67.884933 682.344849,58.447124 684.755615,50.534939 
	C687.361023,41.983543 693.446533,37.296047 701.650452,36.955467 
	C710.148193,36.602688 717.150635,38.918262 720.969238,47.068588 
	C725.019043,55.712238 723.798462,63.767399 717.171936,71.216553 
z"/>
<path fill="#000000" opacity="1.000000" stroke="none" 
	d="
M354.860352,106.018906 
	C363.933136,110.043381 370.519196,116.135506 374.325195,124.956886 
	C376.204926,129.313705 375.229462,130.899384 370.489532,130.919769 
	C348.832489,131.012985 327.174591,131.012909 305.517548,130.921844 
	C300.790039,130.901978 299.716980,129.266953 301.695648,124.961342 
	C307.909607,111.439835 319.024506,104.344582 333.437012,103.345009 
	C340.370331,102.864159 347.481049,104.941887 354.860352,106.018906 
z"/>
<path fill="#000000" opacity="1.000000" stroke="none" 
	d="
M635.000000,103.020874 
	C634.997559,121.841866 635.023193,140.166565 634.977966,158.491089 
	C634.961426,165.190796 634.185059,165.957306 627.459351,165.979004 
	C613.132996,166.025208 598.806396,165.992599 584.479858,165.988068 
	C583.647217,165.987793 582.812256,165.983459 581.982361,165.924362 
	C574.346130,165.380402 571.926880,160.624878 576.511230,154.438919 
	C584.340088,143.874985 592.543640,133.589630 600.470337,123.096985 
	C607.693787,113.535217 614.743042,103.841904 621.910095,94.237221 
	C622.998962,92.777962 624.067505,91.014435 625.580078,90.233467 
	C627.478027,89.253571 630.111145,88.308258 631.886597,88.918961 
	C633.313721,89.409836 634.445862,92.145279 634.795166,94.052155 
	C635.298096,96.796623 634.972168,99.692986 635.000000,103.020874 
z"/>
<path fill="#000000" opacity="1.000000" stroke="none" 
	d="
M512.352661,123.757248 
	C520.293945,140.654968 517.705872,163.067978 503.381165,175.045197 
	C490.449951,185.857224 475.418640,186.794083 460.514801,181.305573 
	C445.824554,175.895706 438.016968,164.105896 437.076080,148.283966 
	C436.578766,139.921219 436.978516,131.692505 441.031311,123.947029 
	C453.047241,100.982719 480.085083,98.678345 497.125183,107.870598 
	C503.754395,111.446732 508.769287,116.682983 512.352661,123.757248 
z"/>
</svg>