<svg version="1.1" id="Layer_1" xmlns="http://www.w3.org/2000/svg" xmlns:xlink="http://www.w3.org/1999/xlink" x="0px" y="0px"
	 width="100%" viewBox="0 0 160 160" enable-background="new 0 0 160 160" xml:space="preserve">
<path fill="#101214" opacity="1.000000" stroke="none" 
	d="
M104.000000,161.000000 
	C69.333336,161.000000 35.166676,161.000000 1.000009,161.000000 
	C1.000006,107.666679 1.000006,54.333355 1.000003,1.000024 
	C54.333317,1.000016 107.666634,1.000016 160.999969,1.000008 
	C160.999969,54.333309 160.999969,107.666618 160.999985,160.999969 
	C142.166672,161.000000 123.333336,161.000000 104.000000,161.000000 
M93.739632,75.873169 
	C97.775566,75.328552 100.041214,73.084602 99.932335,68.950699 
	C99.816315,64.545654 96.674072,63.430305 92.267014,62.960899 
	C88.685051,63.775826 86.857819,66.200378 87.094376,69.686775 
	C87.326874,73.113159 89.307381,75.408852 93.739632,75.873169 
M91.321205,37.249062 
	C89.898315,39.609734 87.180641,42.118099 87.428185,44.288223 
	C87.661026,46.329479 91.022560,48.013847 93.753204,49.977478 
	C98.176903,49.494156 100.395317,46.857010 99.835632,42.605373 
	C99.270340,38.311188 96.418678,36.408810 91.321205,37.249062 
M42.214310,62.930618 
	C37.725216,62.802769 35.401176,65.222183 35.182785,69.468788 
	C34.987225,73.271515 38.113594,75.563354 43.653664,75.548042 
	C45.147511,73.278870 47.765751,71.018410 47.783409,68.737808 
	C47.797832,66.875938 44.705921,64.990013 42.214310,62.930618 
M43.693390,49.737316 
	C45.170059,47.451649 47.775639,45.164936 47.773518,42.880642 
	C47.771755,40.983265 44.701874,39.088737 42.229477,37.006905 
	C37.254299,37.769547 34.512672,40.342270 35.210182,44.107079 
	C35.975979,48.240452 38.507229,50.483261 43.693390,49.737316 
M65.330269,37.284901 
	C59.391510,41.364517 59.683441,46.614197 66.782364,49.942722 
	C71.757072,49.433567 74.259819,47.060596 74.021675,43.078777 
	C73.779640,39.031765 71.065460,37.048557 65.330269,37.284901 
M118.777512,49.991867 
	C123.913361,49.204395 126.598946,46.344685 125.897186,42.410545 
	C125.168633,38.326164 121.857864,36.573036 116.155540,37.871304 
	C111.110641,42.647255 111.736877,46.703735 118.777512,49.991867 
M74.034531,82.503815 
	C74.034454,78.672836 74.063339,74.841583 74.027390,71.010948 
	C73.976044,65.539429 71.756920,62.809307 67.489891,62.884666 
	C63.422043,62.956512 61.159309,65.593689 61.139618,70.748283 
	C61.077251,87.071297 61.080574,103.394844 61.138916,119.717896 
	C61.156738,124.704544 63.609604,127.653206 67.479294,127.756943 
	C71.400864,127.862068 74.010406,124.629410 74.023872,119.480270 
	C74.055252,107.487747 74.034286,95.495094 74.034531,82.503815 
M112.907318,97.499969 
	C112.907677,104.975113 112.861946,112.450638 112.925171,119.925247 
	C112.965118,124.647713 115.635788,127.771004 119.416214,127.751488 
	C123.187080,127.732025 125.915428,124.573547 125.929276,119.889374 
	C125.977890,103.444206 125.981979,86.998711 125.928223,70.553581 
	C125.912079,65.615257 123.463493,62.887291 119.386345,62.892132 
	C115.270882,62.897015 112.961746,65.547195 112.925270,70.586266 
	C112.862755,79.223755 112.907570,87.862022 112.907318,97.499969 
M99.962128,115.391022 
	C99.955650,108.587418 100.061989,101.781120 99.899712,94.981232 
	C99.804749,91.001823 97.356461,88.931671 93.466850,88.920425 
	C89.800003,88.909828 87.246979,90.983299 87.145668,94.590172 
	C86.889549,103.708672 86.857956,112.847099 87.184814,121.961464 
	C87.310699,125.471840 90.010132,127.734329 93.587311,127.667801 
	C97.109665,127.602303 99.462257,125.492439 99.886581,121.822777 
	C100.095024,120.020142 99.948181,118.176430 99.962128,115.391022 
M36.341248,124.847481 
	C38.831470,125.650055 41.601242,127.503433 43.727478,126.937782 
	C45.579315,126.445137 47.843643,123.281776 47.953037,121.195099 
	C48.414032,112.401764 48.212135,103.568672 48.091835,94.752319 
	C48.043335,91.197998 45.729755,89.293808 42.396374,88.952637 
	C38.802975,88.584862 35.533230,90.310005 35.454376,93.853127 
	C35.229954,103.936943 35.745007,114.037224 36.341248,124.847481 
z"/>
<path fill="#FAFAFA" opacity="1.000000" stroke="none" 
	d="
M74.034531,83.003159 
	C74.034286,95.495094 74.055252,107.487747 74.023872,119.480270 
	C74.010406,124.629410 71.400864,127.862068 67.479294,127.756943 
	C63.609604,127.653206 61.156738,124.704544 61.138916,119.717896 
	C61.080574,103.394844 61.077251,87.071297 61.139618,70.748283 
	C61.159309,65.593689 63.422043,62.956512 67.489891,62.884666 
	C71.756920,62.809307 73.976044,65.539429 74.027390,71.010948 
	C74.063339,74.841583 74.034454,78.672836 74.034531,83.003159 
z"/>
<path fill="#FCFCFC" opacity="1.000000" stroke="none" 
	d="
M112.907318,96.999969 
	C112.907570,87.862022 112.862755,79.223755 112.925270,70.586266 
	C112.961746,65.547195 115.270882,62.897015 119.386345,62.892132 
	C123.463493,62.887291 125.912079,65.615257 125.928223,70.553581 
	C125.981979,86.998711 125.977890,103.444206 125.929276,119.889374 
	C125.915428,124.573547 123.187080,127.732025 119.416214,127.751488 
	C115.635788,127.771004 112.965118,124.647713 112.925171,119.925247 
	C112.861946,112.450638 112.907677,104.975113 112.907318,96.999969 
z"/>
<path fill="#FBFBFB" opacity="1.000000" stroke="none" 
	d="
M99.962128,115.871162 
	C99.948181,118.176430 100.095024,120.020142 99.886581,121.822777 
	C99.462257,125.492439 97.109665,127.602303 93.587311,127.667801 
	C90.010132,127.734329 87.310699,125.471840 87.184814,121.961464 
	C86.857956,112.847099 86.889549,103.708672 87.145668,94.590172 
	C87.246979,90.983299 89.800003,88.909828 93.466850,88.920425 
	C97.356461,88.931671 99.804749,91.001823 99.899712,94.981232 
	C100.061989,101.781120 99.955650,108.587418 99.962128,115.871162 
z"/>
<path fill="#FAFAFA" opacity="1.000000" stroke="none" 
	d="
M36.155136,124.489250 
	C35.745007,114.037224 35.229954,103.936943 35.454376,93.853127 
	C35.533230,90.310005 38.802975,88.584862 42.396374,88.952637 
	C45.729755,89.293808 48.043335,91.197998 48.091835,94.752319 
	C48.212135,103.568672 48.414032,112.401764 47.953037,121.195099 
	C47.843643,123.281776 45.579315,126.445137 43.727478,126.937782 
	C41.601242,127.503433 38.831470,125.650055 36.155136,124.489250 
z"/>
<path fill="#82D2EE" opacity="1.000000" stroke="none" 
	d="
M116.854904,37.622444 
	C121.857864,36.573036 125.168633,38.326164 125.897186,42.410545 
	C126.598946,46.344685 123.913361,49.204395 118.387413,49.479622 
	C117.616508,45.185734 117.235710,41.404091 116.854904,37.622444 
z"/>
<path fill="#CA6EA0" opacity="1.000000" stroke="none" 
	d="
M66.018303,37.230839 
	C71.065460,37.048557 73.779640,39.031765 74.021675,43.078777 
	C74.259819,47.060596 71.757072,49.433567 66.396011,49.391205 
	C66.012543,44.970074 66.015427,41.100456 66.018303,37.230839 
z"/>
<path fill="#EF3471" opacity="1.000000" stroke="none" 
	d="
M42.991970,49.777134 
	C38.507229,50.483261 35.975979,48.240452 35.210182,44.107079 
	C34.512672,40.342270 37.254299,37.769547 42.613018,37.548203 
	C42.995029,41.985382 42.993500,45.881256 42.991970,49.777134 
z"/>
<path fill="#F23471" opacity="1.000000" stroke="none" 
	d="
M42.969265,75.610443 
	C38.113594,75.563354 34.987225,73.271515 35.182785,69.468788 
	C35.401176,65.222183 37.725216,62.802769 42.606754,63.474758 
	C42.989223,67.882744 42.979244,71.746597 42.969265,75.610443 
z"/>
<path fill="#A4A1C7" opacity="1.000000" stroke="none" 
	d="
M92.014648,37.215118 
	C96.418678,36.408810 99.270340,38.311188 99.835632,42.605373 
	C100.395317,46.857010 98.176903,49.494156 93.375870,49.471443 
	C92.670570,45.048641 92.342613,41.131882 92.014648,37.215118 
z"/>
<path fill="#A3A2C8" opacity="1.000000" stroke="none" 
	d="
M93.004311,63.065197 
	C96.674072,63.430305 99.816315,64.545654 99.932335,68.950699 
	C100.041214,73.084602 97.775566,75.328552 93.373169,75.352341 
	C93.005898,70.909409 93.005104,66.987305 93.004311,63.065197 
z"/>
<path fill="#A897BF" opacity="1.000000" stroke="none" 
	d="
M92.635666,63.013046 
	C93.005104,66.987305 93.005898,70.909409 93.010071,75.275589 
	C89.307381,75.408852 87.326874,73.113159 87.094376,69.686775 
	C86.857819,66.200378 88.685051,63.775826 92.635666,63.013046 
z"/>
<path fill="#A895BD" opacity="1.000000" stroke="none" 
	d="
M91.667923,37.232090 
	C92.342613,41.131882 92.670570,45.048641 93.003052,49.410316 
	C91.022560,48.013847 87.661026,46.329479 87.428185,44.288223 
	C87.180641,42.118099 89.898315,39.609734 91.667923,37.232090 
z"/>
<path fill="#E83E79" opacity="1.000000" stroke="none" 
	d="
M43.342682,49.757225 
	C42.993500,45.881256 42.995029,41.985382 42.993835,37.641224 
	C44.701874,39.088737 47.771755,40.983265 47.773518,42.880642 
	C47.775639,45.164936 45.170059,47.451649 43.342682,49.757225 
z"/>
<path fill="#E53D77" opacity="1.000000" stroke="none" 
	d="
M43.311462,75.579239 
	C42.979244,71.746597 42.989223,67.882744 42.995239,63.566826 
	C44.705921,64.990013 47.797832,66.875938 47.783409,68.737808 
	C47.765751,71.018410 45.147511,73.278870 43.311462,75.579239 
z"/>
<path fill="#C66192" opacity="1.000000" stroke="none" 
	d="
M65.674286,37.257870 
	C66.015427,41.100456 66.012543,44.970074 66.015854,49.282188 
	C59.683441,46.614197 59.391510,41.364517 65.674286,37.257870 
z"/>
<path fill="#88C7E5" opacity="1.000000" stroke="none" 
	d="
M116.505219,37.746872 
	C117.235710,41.404091 117.616508,45.185734 118.001633,49.412384 
	C111.736877,46.703735 111.110641,42.647255 116.505219,37.746872 
z"/>
</svg>