<svg version="1.1" id="Layer_1" xmlns="http://www.w3.org/2000/svg" xmlns:xlink="http://www.w3.org/1999/xlink" x="0px" y="0px"
	 width="100%" viewBox="0 0 1826 1908" enable-background="new 0 0 1826 1908" xml:space="preserve">
<path fill="#43B02A" opacity="1.000000" stroke="none" 
	d="
M1814.000000,1909.000000 
	C1214.295776,1909.000000 614.591492,1909.000000 14.301325,1908.686035 
	C5.390574,1905.235229 4.004759,1898.557129 4.005603,1890.627563 
	C4.071844,1268.120605 4.066421,645.613525 4.066468,23.106544 
	C4.066468,21.606930 4.108742,20.105997 4.060963,18.607924 
	C3.842168,11.747756 6.673831,6.737872 13.381491,3.783437 
	C16.095676,3.507650 18.397816,3.031433 20.699986,3.031297 
	C568.856628,2.998941 1117.013306,2.998941 1665.169922,3.030405 
	C1667.471436,3.030537 1669.772827,3.494401 1672.404785,3.872464 
	C1681.999146,9.102925 1683.213867,16.640965 1676.315186,26.040731 
	C1594.534546,137.471512 1512.757935,248.905319 1430.978638,360.337158 
	C1356.884155,461.297791 1282.790527,562.259094 1208.687988,663.213806 
	C1200.756470,674.019348 1187.929077,674.964783 1179.252319,665.315369 
	C1152.402100,635.455200 1125.609497,605.543213 1098.777832,575.666260 
	C1070.053467,543.681763 1041.354004,511.674774 1012.549744,479.762299 
	C1003.328552,469.546051 990.998840,469.602203 983.009399,480.005615 
	C950.546997,522.276123 918.187805,564.626221 885.887573,607.020874 
	C879.605286,615.266602 880.366394,623.948425 887.548767,631.388550 
	C897.039490,641.219849 906.578064,651.005066 916.095825,660.810303 
	C1005.586426,753.004395 1095.073853,845.201538 1184.572266,937.388062 
	C1194.552124,947.667664 1204.999390,947.511536 1214.571533,936.908386 
	C1222.833618,927.756409 1230.989868,918.509094 1239.195312,909.306152 
	C1294.971313,846.750000 1350.755371,784.200928 1406.522827,721.637268 
	C1470.937866,649.372253 1535.338501,577.094421 1599.745605,504.822449 
	C1650.850586,447.477264 1701.953003,390.130005 1753.062988,332.789337 
	C1769.028076,314.877747 1784.993164,296.966034 1801.003662,279.095062 
	C1805.424805,274.160339 1810.520996,272.828674 1815.761353,274.968567 
	C1821.265869,277.216370 1823.974487,281.482544 1823.977905,287.944824 
	C1823.979248,290.611053 1823.932739,293.277252 1823.932739,295.943481 
	C1823.930420,827.397461 1823.917969,1358.851440 1824.042725,1890.305420 
	C1824.044678,1898.773682 1821.835693,1905.172485 1814.000000,1909.000000 
M538.966553,1202.611206 
	C513.317078,1196.059937 487.546631,1189.942139 462.054840,1182.826050 
	C439.980377,1176.663818 418.198761,1169.436768 399.100372,1156.074707 
	C384.926300,1146.157837 374.929321,1133.407104 374.136475,1115.571289 
	C373.305786,1096.883789 379.192139,1080.122925 392.097229,1066.343628 
	C414.490448,1042.433472 444.044739,1036.671387 474.821014,1035.038330 
	C487.198059,1034.381470 499.673553,1035.798096 512.108276,1035.957520 
	C530.149109,1036.188721 547.845703,1039.101929 565.241760,1043.385132 
	C593.633545,1050.375732 621.140259,1059.835205 647.022400,1073.855225 
	C665.597168,1083.916992 683.372253,1095.030762 699.810547,1108.288818 
	C708.255066,1115.099609 719.723877,1114.497925 725.908386,1106.496216 
	C738.951721,1089.620361 751.773438,1072.572266 764.598450,1055.528809 
	C776.033325,1040.333008 787.302979,1025.012817 798.741516,1009.819885 
	C803.512695,1003.482727 804.707214,996.588745 800.671082,990.622314 
	C798.470825,987.369995 794.978027,984.919006 791.845337,982.381897 
	C763.473877,959.404480 732.185181,941.233582 698.900208,926.429688 
	C659.102173,908.729187 617.732788,896.510742 574.306641,892.056702 
	C556.242188,890.203979 538.093384,888.601013 519.954590,888.214905 
	C503.567871,887.866211 487.120300,889.000183 470.741058,890.098816 
	C457.245361,891.004150 443.687653,892.094116 430.371643,894.360779 
	C391.224854,901.024475 353.852081,913.219360 319.827942,934.024658 
	C245.339310,979.573181 204.799286,1044.794556 205.984482,1133.588013 
	C206.127365,1144.293823 206.500092,1155.125244 208.242630,1165.654053 
	C211.755249,1186.877930 218.110016,1207.246704 228.114380,1226.518433 
	C241.752960,1252.790771 260.965118,1274.151245 284.457581,1291.624878 
	C301.842407,1304.555664 320.794250,1314.974976 340.617767,1323.950928 
	C369.239807,1336.910400 398.987671,1346.561035 429.166626,1354.783691 
	C457.436951,1362.486328 486.136169,1368.602417 514.576904,1375.696411 
	C532.618469,1380.196167 550.713135,1384.625244 568.459473,1390.131836 
	C592.119202,1397.473267 615.527832,1405.411499 635.298462,1421.520508 
	C651.099976,1434.395630 658.299805,1450.765747 657.987793,1470.583984 
	C657.824341,1480.964111 654.609070,1490.788452 649.225891,1499.818237 
	C635.971130,1522.051880 615.606750,1534.932495 591.789001,1542.890015 
	C565.836548,1551.560913 539.059570,1554.206665 511.733582,1553.292480 
	C493.520782,1552.683472 475.453247,1551.205566 457.604126,1547.736450 
	C429.267578,1542.229370 401.816772,1533.851929 375.630432,1521.492676 
	C343.170166,1506.172241 313.631500,1486.574585 287.089569,1462.378296 
	C277.818329,1453.926392 266.716553,1455.198975 259.495697,1465.245361 
	C235.977661,1497.966187 212.558945,1530.758789 189.172592,1563.573975 
	C183.599976,1571.393433 184.909286,1581.122925 192.145264,1587.389526 
	C274.416260,1658.638794 369.915497,1696.452148 478.709717,1699.920288 
	C502.456848,1700.677246 526.314941,1700.123169 550.038086,1698.737061 
	C567.229919,1697.732422 584.307312,1694.520264 601.393311,1692.003784 
	C633.008606,1687.347412 663.187500,1677.738525 691.926025,1663.954468 
	C721.800415,1649.625366 748.383667,1630.763916 770.267151,1605.452393 
	C781.602722,1592.341064 791.472900,1578.336182 799.433167,1563.077515 
	C817.419739,1528.599609 825.459961,1491.482422 825.760681,1452.853516 
	C825.888367,1436.441772 824.300232,1419.868774 821.835815,1403.620117 
	C818.288025,1380.228394 810.086426,1358.274414 797.579285,1337.997681 
	C784.867615,1317.389526 768.730652,1300.031006 749.715759,1285.105713 
	C729.168335,1268.977539 706.742004,1255.870728 682.642395,1246.338989 
	C655.998413,1235.800903 628.688354,1226.798218 601.281616,1218.386963 
	C581.090759,1212.190308 560.278381,1208.018555 538.966553,1202.611206 
M963.019836,1205.534790 
	C933.136780,1245.870117 913.748718,1290.707764 907.036438,1340.500977 
	C904.532654,1359.074463 904.422974,1378.001221 903.769531,1396.786133 
	C902.820435,1424.068359 905.620239,1451.055054 912.708496,1477.429199 
	C936.565613,1566.197388 989.945801,1630.950562 1072.355225,1671.442139 
	C1104.591431,1687.281494 1138.895752,1696.701050 1174.832275,1699.088745 
	C1189.765137,1700.080933 1204.793335,1699.665283 1219.778931,1699.828979 
	C1269.819824,1700.375610 1318.113281,1691.499634 1364.588135,1672.877686 
	C1392.668213,1661.626465 1419.066772,1647.298218 1443.620972,1629.606201 
	C1451.548218,1623.894531 1453.971558,1615.346191 1448.947266,1607.859131 
	C1432.343018,1583.115356 1415.556885,1558.491089 1398.583008,1533.999268 
	C1393.034546,1525.993042 1384.192993,1524.836792 1376.226074,1530.405518 
	C1336.120483,1558.438599 1291.644653,1573.965576 1242.861328,1577.517822 
	C1213.022827,1579.690674 1183.965942,1577.274536 1156.529297,1564.231445 
	C1107.652954,1540.995850 1077.626099,1502.916870 1066.737183,1449.850830 
	C1065.677246,1444.686035 1067.290771,1442.723999 1072.479248,1442.509888 
	C1073.976562,1442.447998 1075.478394,1442.496094 1076.978149,1442.496094 
	C1210.458374,1442.495850 1343.938477,1442.496216 1477.418701,1442.494873 
	C1479.584961,1442.494873 1481.755981,1442.564575 1483.916626,1442.449829 
	C1493.461426,1441.943359 1499.665527,1435.898315 1499.155273,1426.317505 
	C1497.729980,1399.559570 1497.185913,1372.657593 1493.851807,1346.119263 
	C1487.173096,1292.958008 1468.832275,1243.885254 1437.480347,1200.055908 
	C1413.127075,1166.010254 1382.446167,1139.129395 1345.480957,1119.501709 
	C1308.274536,1099.745972 1268.383179,1089.665527 1226.482422,1087.196777 
	C1198.105225,1085.524902 1169.783936,1086.355469 1141.931030,1092.364868 
	C1068.790771,1108.145264 1009.004822,1145.332153 963.019836,1205.534790 
z"/>
<path fill="#FFFFFF" opacity="1.000000" stroke="none" 
	d="
M1814.476685,1909.000000 
	C1821.835693,1905.172485 1824.044678,1898.773682 1824.042725,1890.305420 
	C1823.917969,1358.851440 1823.930420,827.397461 1823.932739,295.943481 
	C1823.932739,293.277252 1823.979248,290.611053 1823.977905,287.944824 
	C1823.974487,281.482544 1821.265869,277.216370 1815.761353,274.968567 
	C1810.520996,272.828674 1805.424805,274.160339 1801.003662,279.095062 
	C1784.993164,296.966034 1769.028076,314.877747 1753.062988,332.789337 
	C1701.953003,390.130005 1650.850586,447.477264 1599.745605,504.822449 
	C1535.338501,577.094421 1470.937866,649.372253 1406.522827,721.637268 
	C1350.755371,784.200928 1294.971313,846.750000 1239.195312,909.306152 
	C1230.989868,918.509094 1222.833618,927.756409 1214.571533,936.908386 
	C1204.999390,947.511536 1194.552124,947.667664 1184.572266,937.388062 
	C1095.073853,845.201538 1005.586426,753.004395 916.095825,660.810303 
	C906.578064,651.005066 897.039490,641.219849 887.548767,631.388550 
	C880.366394,623.948425 879.605286,615.266602 885.887573,607.020874 
	C918.187805,564.626221 950.546997,522.276123 983.009399,480.005615 
	C990.998840,469.602203 1003.328552,469.546051 1012.549744,479.762299 
	C1041.354004,511.674774 1070.053467,543.681763 1098.777832,575.666260 
	C1125.609497,605.543213 1152.402100,635.455200 1179.252319,665.315369 
	C1187.929077,674.964783 1200.756470,674.019348 1208.687988,663.213806 
	C1282.790527,562.259094 1356.884155,461.297791 1430.978638,360.337158 
	C1512.757935,248.905319 1594.534546,137.471512 1676.315186,26.040731 
	C1683.213867,16.640965 1681.999146,9.102925 1672.762085,3.692482 
	C1674.937866,3.254308 1677.086670,3.016569 1679.235474,3.015661 
	C1728.490356,2.994834 1777.745117,2.999824 1827.000000,3.000000 
	C1827.000000,638.333313 1827.000000,1273.666626 1827.000000,1909.000000 
	C1822.951538,1909.000000 1818.952393,1909.000000 1814.476685,1909.000000 
z"/>
<path fill="#FFFFFF" opacity="1.000000" stroke="none" 
	d="
M12.969460,3.805349 
	C6.673831,6.737872 3.842168,11.747756 4.060963,18.607924 
	C4.108742,20.105997 4.066468,21.606930 4.066468,23.106544 
	C4.066421,645.613525 4.071844,1268.120605 4.005603,1890.627563 
	C4.004759,1898.557129 5.390574,1905.235229 13.857721,1908.686035 
	C9.667654,1909.000000 5.335309,1909.000000 1.001482,1909.000000 
	C1.000000,1273.979126 1.000000,638.958191 1.456596,3.468458 
	C5.598615,3.268183 9.284038,3.536766 12.969460,3.805349 
z"/>
<path fill="#E1E1E2" opacity="1.000000" stroke="none" 
	d="
M13.381491,3.783437 
	C9.284038,3.536766 5.598615,3.268183 1.456596,2.999800 
	C1.333333,2.333333 1.548027,1.216341 2.023962,1.090954 
	C3.114909,0.803541 4.333333,1.000000 5.500000,1.000000 
	C611.166687,1.000000 1216.833374,0.999277 1822.500000,1.041173 
	C1824.000000,1.041277 1825.500000,1.666672 1827.000000,2.500003 
	C1777.745117,2.999824 1728.490356,2.994834 1679.235474,3.015661 
	C1677.086670,3.016569 1674.937866,3.254308 1672.431641,3.561710 
	C1669.772827,3.494401 1667.471436,3.030537 1665.169922,3.030405 
	C1117.013306,2.998941 568.856628,2.998941 20.699986,3.031297 
	C18.397816,3.031433 16.095676,3.507650 13.381491,3.783437 
z"/>
<path fill="#FFFFFF" opacity="1.000000" stroke="none" 
	d="
M539.354736,1202.777832 
	C560.278381,1208.018555 581.090759,1212.190308 601.281616,1218.386963 
	C628.688354,1226.798218 655.998413,1235.800903 682.642395,1246.338989 
	C706.742004,1255.870728 729.168335,1268.977539 749.715759,1285.105713 
	C768.730652,1300.031006 784.867615,1317.389526 797.579285,1337.997681 
	C810.086426,1358.274414 818.288025,1380.228394 821.835815,1403.620117 
	C824.300232,1419.868774 825.888367,1436.441772 825.760681,1452.853516 
	C825.459961,1491.482422 817.419739,1528.599609 799.433167,1563.077515 
	C791.472900,1578.336182 781.602722,1592.341064 770.267151,1605.452393 
	C748.383667,1630.763916 721.800415,1649.625366 691.926025,1663.954468 
	C663.187500,1677.738525 633.008606,1687.347412 601.393311,1692.003784 
	C584.307312,1694.520264 567.229919,1697.732422 550.038086,1698.737061 
	C526.314941,1700.123169 502.456848,1700.677246 478.709717,1699.920288 
	C369.915497,1696.452148 274.416260,1658.638794 192.145264,1587.389526 
	C184.909286,1581.122925 183.599976,1571.393433 189.172592,1563.573975 
	C212.558945,1530.758789 235.977661,1497.966187 259.495697,1465.245361 
	C266.716553,1455.198975 277.818329,1453.926392 287.089569,1462.378296 
	C313.631500,1486.574585 343.170166,1506.172241 375.630432,1521.492676 
	C401.816772,1533.851929 429.267578,1542.229370 457.604126,1547.736450 
	C475.453247,1551.205566 493.520782,1552.683472 511.733582,1553.292480 
	C539.059570,1554.206665 565.836548,1551.560913 591.789001,1542.890015 
	C615.606750,1534.932495 635.971130,1522.051880 649.225891,1499.818237 
	C654.609070,1490.788452 657.824341,1480.964111 657.987793,1470.583984 
	C658.299805,1450.765747 651.099976,1434.395630 635.298462,1421.520508 
	C615.527832,1405.411499 592.119202,1397.473267 568.459473,1390.131836 
	C550.713135,1384.625244 532.618469,1380.196167 514.576904,1375.696411 
	C486.136169,1368.602417 457.436951,1362.486328 429.166626,1354.783691 
	C398.987671,1346.561035 369.239807,1336.910400 340.617767,1323.950928 
	C320.794250,1314.974976 301.842407,1304.555664 284.457581,1291.624878 
	C260.965118,1274.151245 241.752960,1252.790771 228.114380,1226.518433 
	C218.110016,1207.246704 211.755249,1186.877930 208.242630,1165.654053 
	C206.500092,1155.125244 206.127365,1144.293823 205.984482,1133.588013 
	C204.799286,1044.794556 245.339310,979.573181 319.827942,934.024658 
	C353.852081,913.219360 391.224854,901.024475 430.371643,894.360779 
	C443.687653,892.094116 457.245361,891.004150 470.741058,890.098816 
	C487.120300,889.000183 503.567871,887.866211 519.954590,888.214905 
	C538.093384,888.601013 556.242188,890.203979 574.306641,892.056702 
	C617.732788,896.510742 659.102173,908.729187 698.900208,926.429688 
	C732.185181,941.233582 763.473877,959.404480 791.845337,982.381897 
	C794.978027,984.919006 798.470825,987.369995 800.671082,990.622314 
	C804.707214,996.588745 803.512695,1003.482727 798.741516,1009.819885 
	C787.302979,1025.012817 776.033325,1040.333008 764.598450,1055.528809 
	C751.773438,1072.572266 738.951721,1089.620361 725.908386,1106.496216 
	C719.723877,1114.497925 708.255066,1115.099609 699.810547,1108.288818 
	C683.372253,1095.030762 665.597168,1083.916992 647.022400,1073.855225 
	C621.140259,1059.835205 593.633545,1050.375732 565.241760,1043.385132 
	C547.845703,1039.101929 530.149109,1036.188721 512.108276,1035.957520 
	C499.673553,1035.798096 487.198059,1034.381470 474.821014,1035.038330 
	C444.044739,1036.671387 414.490448,1042.433472 392.097229,1066.343628 
	C379.192139,1080.122925 373.305786,1096.883789 374.136475,1115.571289 
	C374.929321,1133.407104 384.926300,1146.157837 399.100372,1156.074707 
	C418.198761,1169.436768 439.980377,1176.663818 462.054840,1182.826050 
	C487.546631,1189.942139 513.317078,1196.059937 539.354736,1202.777832 
z"/>
<path fill="#FFFFFF" opacity="1.000000" stroke="none" 
	d="
M963.244141,1205.256714 
	C1009.004822,1145.332153 1068.790771,1108.145264 1141.931030,1092.364868 
	C1169.783936,1086.355469 1198.105225,1085.524902 1226.482422,1087.196777 
	C1268.383179,1089.665527 1308.274536,1099.745972 1345.480957,1119.501709 
	C1382.446167,1139.129395 1413.127075,1166.010254 1437.480347,1200.055908 
	C1468.832275,1243.885254 1487.173096,1292.958008 1493.851807,1346.119263 
	C1497.185913,1372.657593 1497.729980,1399.559570 1499.155273,1426.317505 
	C1499.665527,1435.898315 1493.461426,1441.943359 1483.916626,1442.449829 
	C1481.755981,1442.564575 1479.584961,1442.494873 1477.418701,1442.494873 
	C1343.938477,1442.496216 1210.458374,1442.495850 1076.978149,1442.496094 
	C1075.478394,1442.496094 1073.976562,1442.447998 1072.479248,1442.509888 
	C1067.290771,1442.723999 1065.677246,1444.686035 1066.737183,1449.850830 
	C1077.626099,1502.916870 1107.652954,1540.995850 1156.529297,1564.231445 
	C1183.965942,1577.274536 1213.022827,1579.690674 1242.861328,1577.517822 
	C1291.644653,1573.965576 1336.120483,1558.438599 1376.226074,1530.405518 
	C1384.192993,1524.836792 1393.034546,1525.993042 1398.583008,1533.999268 
	C1415.556885,1558.491089 1432.343018,1583.115356 1448.947266,1607.859131 
	C1453.971558,1615.346191 1451.548218,1623.894531 1443.620972,1629.606201 
	C1419.066772,1647.298218 1392.668213,1661.626465 1364.588135,1672.877686 
	C1318.113281,1691.499634 1269.819824,1700.375610 1219.778931,1699.828979 
	C1204.793335,1699.665283 1189.765137,1700.080933 1174.832275,1699.088745 
	C1138.895752,1696.701050 1104.591431,1687.281494 1072.355225,1671.442139 
	C989.945801,1630.950562 936.565613,1566.197388 912.708496,1477.429199 
	C905.620239,1451.055054 902.820435,1424.068359 903.769531,1396.786133 
	C904.422974,1378.001221 904.532654,1359.074463 907.036438,1340.500977 
	C913.748718,1290.707764 933.136780,1245.870117 963.244141,1205.256714 
M1143.607666,1222.024414 
	C1099.944092,1243.720947 1073.369019,1278.368042 1064.599976,1326.445435 
	C1062.680908,1336.967896 1063.777710,1338.167480 1074.200562,1338.167480 
	C1163.002441,1338.167725 1251.804443,1338.167847 1340.606323,1338.165771 
	C1342.272095,1338.165771 1343.945801,1338.238403 1345.601807,1338.103882 
	C1349.238892,1337.808350 1351.129150,1335.807861 1350.577026,1332.130371 
	C1349.614502,1325.718628 1348.763184,1319.266235 1347.325684,1312.953735 
	C1334.012573,1254.498047 1281.397827,1209.472778 1217.822632,1208.793091 
	C1192.430298,1208.521729 1167.607178,1210.581055 1143.607666,1222.024414 
z"/>
<path fill="#43B02A" opacity="1.000000" stroke="none" 
	d="
M1143.954102,1221.877441 
	C1167.607178,1210.581055 1192.430298,1208.521729 1217.822632,1208.793091 
	C1281.397827,1209.472778 1334.012573,1254.498047 1347.325684,1312.953735 
	C1348.763184,1319.266235 1349.614502,1325.718628 1350.577026,1332.130371 
	C1351.129150,1335.807861 1349.238892,1337.808350 1345.601807,1338.103882 
	C1343.945801,1338.238403 1342.272095,1338.165771 1340.606323,1338.165771 
	C1251.804443,1338.167847 1163.002441,1338.167725 1074.200562,1338.167480 
	C1063.777710,1338.167480 1062.680908,1336.967896 1064.599976,1326.445435 
	C1073.369019,1278.368042 1099.944092,1243.720947 1143.954102,1221.877441 
z"/>
</svg>